%TF.GenerationSoftware,KiCad,Pcbnew,9.0.6*%
%TF.CreationDate,2025-11-09T23:23:57-08:00*%
%TF.ProjectId,mfzh25_token,6d667a68-3235-45f7-946f-6b656e2e6b69,rev?*%
%TF.SameCoordinates,Original*%
%TF.FileFunction,Soldermask,Bot*%
%TF.FilePolarity,Negative*%
%FSLAX46Y46*%
G04 Gerber Fmt 4.6, Leading zero omitted, Abs format (unit mm)*
G04 Created by KiCad (PCBNEW 9.0.6) date 2025-11-09 23:23:57*
%MOMM*%
%LPD*%
G01*
G04 APERTURE LIST*
G04 Aperture macros list*
%AMRoundRect*
0 Rectangle with rounded corners*
0 $1 Rounding radius*
0 $2 $3 $4 $5 $6 $7 $8 $9 X,Y pos of 4 corners*
0 Add a 4 corners polygon primitive as box body*
4,1,4,$2,$3,$4,$5,$6,$7,$8,$9,$2,$3,0*
0 Add four circle primitives for the rounded corners*
1,1,$1+$1,$2,$3*
1,1,$1+$1,$4,$5*
1,1,$1+$1,$6,$7*
1,1,$1+$1,$8,$9*
0 Add four rect primitives between the rounded corners*
20,1,$1+$1,$2,$3,$4,$5,0*
20,1,$1+$1,$4,$5,$6,$7,0*
20,1,$1+$1,$6,$7,$8,$9,0*
20,1,$1+$1,$8,$9,$2,$3,0*%
G04 Aperture macros list end*
%ADD10RoundRect,0.250000X0.450000X-0.262500X0.450000X0.262500X-0.450000X0.262500X-0.450000X-0.262500X0*%
%ADD11C,1.500000*%
%ADD12RoundRect,0.250000X0.375000X0.625000X-0.375000X0.625000X-0.375000X-0.625000X0.375000X-0.625000X0*%
%ADD13RoundRect,0.250000X-0.450000X0.262500X-0.450000X-0.262500X0.450000X-0.262500X0.450000X0.262500X0*%
%ADD14RoundRect,0.250000X-0.312500X-0.625000X0.312500X-0.625000X0.312500X0.625000X-0.312500X0.625000X0*%
%ADD15RoundRect,0.250000X-0.260000X2.250000X-0.260000X-2.250000X0.260000X-2.250000X0.260000X2.250000X0*%
G04 APERTURE END LIST*
D10*
%TO.C,R13*%
X63500000Y-122832500D03*
X63500000Y-121007500D03*
%TD*%
D11*
%TO.C,TP2*%
X81915000Y-108585000D03*
%TD*%
%TO.C,TP1*%
X81915000Y-105410000D03*
%TD*%
%TO.C,TP3*%
X81915000Y-102235000D03*
%TD*%
%TO.C,TP4*%
X81915000Y-95885000D03*
%TD*%
%TO.C,TP5*%
X81915000Y-99060000D03*
%TD*%
%TO.C,TP10*%
X67310000Y-105410000D03*
%TD*%
%TO.C,TP9*%
X67310000Y-95885000D03*
%TD*%
%TO.C,TP8*%
X67310000Y-99060000D03*
%TD*%
%TO.C,TP7*%
X67310000Y-102235000D03*
%TD*%
%TO.C,TP6*%
X67310000Y-108585000D03*
%TD*%
D12*
%TO.C,D1*%
X72520000Y-108585000D03*
X69720000Y-108585000D03*
%TD*%
D13*
%TO.C,R10*%
X83820000Y-121007500D03*
X83820000Y-122832500D03*
%TD*%
D14*
%TO.C,R4*%
X76007500Y-95885000D03*
X78932500Y-95885000D03*
%TD*%
D10*
%TO.C,R20*%
X53340000Y-121007500D03*
X53340000Y-122832500D03*
%TD*%
%TO.C,R18*%
X63500000Y-127912500D03*
X63500000Y-126087500D03*
%TD*%
D12*
%TO.C,D2*%
X72520000Y-102235000D03*
X69720000Y-102235000D03*
%TD*%
%TO.C,D3*%
X72520000Y-99060000D03*
X69720000Y-99060000D03*
%TD*%
D10*
%TO.C,R12*%
X68580000Y-123547500D03*
X68580000Y-125372500D03*
%TD*%
D15*
%TO.C,J2*%
X68580000Y-134640000D03*
X68580000Y-142240000D03*
X71120000Y-134640000D03*
X71120000Y-142240000D03*
X73660000Y-134640000D03*
X73660000Y-142240000D03*
%TD*%
D10*
%TO.C,R11*%
X78740000Y-125372500D03*
X78740000Y-123547500D03*
%TD*%
D13*
%TO.C,R9*%
X83820000Y-127912500D03*
X83820000Y-126087500D03*
%TD*%
D10*
%TO.C,R14*%
X73660000Y-122832500D03*
X73660000Y-121007500D03*
%TD*%
D14*
%TO.C,R5*%
X76007500Y-99060000D03*
X78932500Y-99060000D03*
%TD*%
D10*
%TO.C,R19*%
X53340000Y-126087500D03*
X53340000Y-127912500D03*
%TD*%
D12*
%TO.C,D5*%
X69720000Y-105410000D03*
X72520000Y-105410000D03*
%TD*%
D10*
%TO.C,R17*%
X58420000Y-125372500D03*
X58420000Y-123547500D03*
%TD*%
D13*
%TO.C,R6*%
X88900000Y-125372500D03*
X88900000Y-123547500D03*
%TD*%
%TO.C,R7*%
X93980000Y-127912500D03*
X93980000Y-126087500D03*
%TD*%
D14*
%TO.C,R1*%
X76007500Y-105410000D03*
X78932500Y-105410000D03*
%TD*%
%TO.C,R3*%
X76007500Y-102235000D03*
X78932500Y-102235000D03*
%TD*%
D10*
%TO.C,R16*%
X48260000Y-123547500D03*
X48260000Y-125372500D03*
%TD*%
%TO.C,R15*%
X73660000Y-127912500D03*
X73660000Y-126087500D03*
%TD*%
D14*
%TO.C,R2*%
X76007500Y-108585000D03*
X78932500Y-108585000D03*
%TD*%
D12*
%TO.C,D4*%
X72650000Y-95885000D03*
X69850000Y-95885000D03*
%TD*%
D13*
%TO.C,R8*%
X93980000Y-122832500D03*
X93980000Y-121007500D03*
%TD*%
M02*
