%TF.GenerationSoftware,KiCad,Pcbnew,9.0.6*%
%TF.CreationDate,2025-11-09T23:23:57-08:00*%
%TF.ProjectId,mfzh25_token,6d667a68-3235-45f7-946f-6b656e2e6b69,rev?*%
%TF.SameCoordinates,Original*%
%TF.FileFunction,Profile,NP*%
%FSLAX46Y46*%
G04 Gerber Fmt 4.6, Leading zero omitted, Abs format (unit mm)*
G04 Created by KiCad (PCBNEW 9.0.6) date 2025-11-09 23:23:57*
%MOMM*%
%LPD*%
G01*
G04 APERTURE LIST*
%TA.AperFunction,Profile*%
%ADD10C,0.362433*%
%TD*%
G04 APERTURE END LIST*
D10*
X71500000Y-78500000D02*
X71771431Y-78513421D01*
X72028322Y-78535068D01*
X72271430Y-78564351D01*
X72501513Y-78600679D01*
X72719328Y-78643462D01*
X72925633Y-78692110D01*
X73121186Y-78746033D01*
X73483064Y-78867343D01*
X73811023Y-79002670D01*
X74111122Y-79147292D01*
X74389422Y-79296488D01*
X74904867Y-79589712D01*
X75154133Y-79724298D01*
X75405841Y-79844570D01*
X75666052Y-79945807D01*
X75801240Y-79987812D01*
X75940827Y-80023287D01*
X76085569Y-80051643D01*
X76236225Y-80072289D01*
X76393551Y-80084635D01*
X76558307Y-80088090D01*
X76904030Y-80080272D01*
X77255208Y-80063678D01*
X77969358Y-80016412D01*
X78691614Y-79970800D01*
X79052925Y-79956273D01*
X79412835Y-79951349D01*
X79770199Y-79959092D01*
X80123877Y-79982565D01*
X80472724Y-80024832D01*
X80815598Y-80088955D01*
X81151357Y-80177998D01*
X81478857Y-80295025D01*
X81639153Y-80364989D01*
X81796956Y-80443098D01*
X81952122Y-80529734D01*
X82104510Y-80625281D01*
X82311386Y-80769306D01*
X82506737Y-80918859D01*
X82691087Y-81073656D01*
X82864961Y-81233408D01*
X83028882Y-81397830D01*
X83183376Y-81566635D01*
X83328965Y-81739537D01*
X83466174Y-81916249D01*
X83717550Y-82279958D01*
X83941696Y-82655469D01*
X84142806Y-83040492D01*
X84325074Y-83432734D01*
X84492691Y-83829904D01*
X84649853Y-84229709D01*
X84949580Y-85028059D01*
X85100533Y-85422020D01*
X85257802Y-85809450D01*
X85425582Y-86188055D01*
X85608066Y-86555546D01*
X85852701Y-86995543D01*
X86113149Y-87427922D01*
X86664005Y-88276266D01*
X87225679Y-89113457D01*
X87499649Y-89531897D01*
X87763214Y-89952378D01*
X88012006Y-90376513D01*
X88241655Y-90805910D01*
X88447792Y-91242180D01*
X88626046Y-91686933D01*
X88703353Y-91912994D01*
X88772050Y-92141779D01*
X88831592Y-92373490D01*
X88881432Y-92608328D01*
X88921025Y-92846495D01*
X88949825Y-93088192D01*
X88967284Y-93333619D01*
X88972857Y-93582978D01*
X88968097Y-93751751D01*
X88954870Y-93917424D01*
X88933656Y-94080193D01*
X88904939Y-94240255D01*
X88869200Y-94397807D01*
X88826922Y-94553046D01*
X88724675Y-94857370D01*
X88602054Y-95154804D01*
X88462916Y-95446920D01*
X88311118Y-95735293D01*
X88150515Y-96021499D01*
X87818321Y-96593703D01*
X87654442Y-96882851D01*
X87497185Y-97176129D01*
X87350406Y-97475111D01*
X87217960Y-97781371D01*
X87103705Y-98096485D01*
X87054604Y-98257854D01*
X87011497Y-98422026D01*
X86964035Y-98636310D01*
X86926406Y-98843640D01*
X86898065Y-99044505D01*
X86878465Y-99239389D01*
X86867060Y-99428780D01*
X86863303Y-99613164D01*
X86876554Y-99968854D01*
X86913848Y-100310351D01*
X86970816Y-100641545D01*
X87043092Y-100966325D01*
X87126306Y-101288584D01*
X87308076Y-101941095D01*
X87397895Y-102279128D01*
X87481179Y-102630201D01*
X87553559Y-102998203D01*
X87610668Y-103387025D01*
X87648137Y-103800557D01*
X87658141Y-104017805D01*
X87661597Y-104242690D01*
X87658013Y-104433758D01*
X87647535Y-104620947D01*
X87607538Y-104985645D01*
X87544893Y-105340711D01*
X87462886Y-105690071D01*
X87364801Y-106037650D01*
X87253926Y-106387374D01*
X87006946Y-107108964D01*
X86748233Y-107886247D01*
X86622690Y-108305589D01*
X86504072Y-108750632D01*
X86395664Y-109225302D01*
X86300752Y-109733526D01*
X86222621Y-110279229D01*
X86164557Y-110866338D01*
X86177289Y-111039710D01*
X86211491Y-111212086D01*
X86266051Y-111383249D01*
X86339859Y-111552980D01*
X86431801Y-111721062D01*
X86540768Y-111887278D01*
X86665648Y-112051408D01*
X86805329Y-112213236D01*
X86958699Y-112372544D01*
X87124648Y-112529114D01*
X87302064Y-112682728D01*
X87489836Y-112833169D01*
X87891999Y-113123658D01*
X88322247Y-113398840D01*
X88771688Y-113656973D01*
X89231431Y-113896313D01*
X89692584Y-114115120D01*
X90146255Y-114311651D01*
X90583554Y-114484163D01*
X90995588Y-114630915D01*
X91373466Y-114750164D01*
X91708297Y-114840169D01*
X92344610Y-115006668D01*
X93032744Y-115214994D01*
X93759885Y-115466669D01*
X94513218Y-115763219D01*
X95279928Y-116106165D01*
X96047199Y-116497033D01*
X96802217Y-116937345D01*
X97532166Y-117428625D01*
X98224233Y-117972397D01*
X98552055Y-118264443D01*
X98865601Y-118570183D01*
X99163269Y-118889809D01*
X99443457Y-119223509D01*
X99704562Y-119571475D01*
X99944984Y-119933897D01*
X100163120Y-120310966D01*
X100357368Y-120702871D01*
X100526127Y-121109804D01*
X100667795Y-121531955D01*
X100780769Y-121969514D01*
X100863448Y-122422672D01*
X100914230Y-122891619D01*
X100931514Y-123376546D01*
X100833392Y-142804162D01*
X100828621Y-142967407D01*
X100814492Y-143131192D01*
X100791278Y-143295142D01*
X100759255Y-143458883D01*
X100718695Y-143622038D01*
X100669874Y-143784232D01*
X100613065Y-143945090D01*
X100548544Y-144104237D01*
X100476584Y-144261297D01*
X100397459Y-144415895D01*
X100311444Y-144567657D01*
X100218813Y-144716205D01*
X100014801Y-145002163D01*
X99787616Y-145270768D01*
X99666019Y-145397624D01*
X99539452Y-145519016D01*
X99408189Y-145634569D01*
X99272504Y-145743906D01*
X99132672Y-145846653D01*
X98988966Y-145942435D01*
X98841662Y-146030876D01*
X98691032Y-146111600D01*
X98537353Y-146184233D01*
X98380896Y-146248400D01*
X98221938Y-146303724D01*
X98060753Y-146349831D01*
X97897614Y-146386345D01*
X97732795Y-146412891D01*
X97566572Y-146429094D01*
X97399219Y-146434579D01*
X46377190Y-146434579D01*
X46179853Y-146429944D01*
X45986878Y-146416169D01*
X45798391Y-146393445D01*
X45614515Y-146361965D01*
X45435376Y-146321921D01*
X45261098Y-146273506D01*
X45091806Y-146216910D01*
X44927625Y-146152328D01*
X44768679Y-146079951D01*
X44615094Y-145999971D01*
X44466994Y-145912580D01*
X44324504Y-145817971D01*
X44187748Y-145716337D01*
X44056852Y-145607868D01*
X43931940Y-145492758D01*
X43813137Y-145371199D01*
X43700567Y-145243383D01*
X43594356Y-145109503D01*
X43494628Y-144969750D01*
X43401508Y-144824317D01*
X43315121Y-144673396D01*
X43235591Y-144517179D01*
X43163043Y-144355859D01*
X43097602Y-144189628D01*
X43039393Y-144018678D01*
X42988540Y-143843201D01*
X42945169Y-143663390D01*
X42909403Y-143479437D01*
X42881369Y-143291534D01*
X42861189Y-143099873D01*
X42848990Y-142904647D01*
X42844896Y-142706048D01*
X42943016Y-134718322D01*
X43010473Y-128680299D01*
X43041135Y-123376550D01*
X43052057Y-123006788D01*
X43084630Y-122634880D01*
X43138561Y-122261626D01*
X43213559Y-121887824D01*
X43309331Y-121514276D01*
X43425586Y-121141781D01*
X43562032Y-120771140D01*
X43718376Y-120403152D01*
X43894328Y-120038619D01*
X44089595Y-119678338D01*
X44303884Y-119323112D01*
X44536905Y-118973739D01*
X44788366Y-118631020D01*
X45057974Y-118295756D01*
X45345437Y-117968745D01*
X45650464Y-117650788D01*
X45972763Y-117342686D01*
X46312041Y-117045237D01*
X46668007Y-116759243D01*
X47040370Y-116485504D01*
X47428836Y-116224819D01*
X47833115Y-115977988D01*
X48252914Y-115745812D01*
X48687941Y-115529090D01*
X49137905Y-115328624D01*
X49602513Y-115145212D01*
X50081474Y-114979655D01*
X50574496Y-114832752D01*
X51081287Y-114705305D01*
X51601554Y-114598113D01*
X52135007Y-114511976D01*
X52681353Y-114447694D01*
X53046555Y-114397561D01*
X53427446Y-114316456D01*
X53818509Y-114205878D01*
X54214226Y-114067326D01*
X54609081Y-113902298D01*
X54997554Y-113712293D01*
X55374129Y-113498810D01*
X55733288Y-113263347D01*
X56069514Y-113007403D01*
X56377289Y-112732477D01*
X56518783Y-112588364D01*
X56651095Y-112440068D01*
X56773536Y-112287775D01*
X56885416Y-112131673D01*
X56986045Y-111971950D01*
X57074733Y-111808792D01*
X57150791Y-111642388D01*
X57213529Y-111472924D01*
X57262258Y-111300588D01*
X57296287Y-111125567D01*
X57314927Y-110948049D01*
X57317489Y-110768220D01*
X57296466Y-110478755D01*
X57253112Y-110202511D01*
X57188934Y-109938215D01*
X57105442Y-109684592D01*
X57004143Y-109440367D01*
X56886546Y-109204265D01*
X56754159Y-108975012D01*
X56608489Y-108751333D01*
X56451047Y-108531953D01*
X56283338Y-108315599D01*
X55923158Y-107886866D01*
X55145977Y-107009615D01*
X54753107Y-106540703D01*
X54560881Y-106294214D01*
X54373472Y-106038004D01*
X54192389Y-105770798D01*
X54019139Y-105491321D01*
X53855231Y-105198299D01*
X53702173Y-104890456D01*
X53561473Y-104566520D01*
X53434640Y-104225214D01*
X53323182Y-103865264D01*
X53228606Y-103485396D01*
X53152422Y-103084335D01*
X53096138Y-102660806D01*
X53061261Y-102213534D01*
X53049300Y-101741246D01*
X53063131Y-101244611D01*
X53103869Y-100758674D01*
X53170378Y-100283544D01*
X53261524Y-99819331D01*
X53376173Y-99366142D01*
X53513190Y-98924086D01*
X53671440Y-98493273D01*
X53849789Y-98073812D01*
X54047103Y-97665810D01*
X54262246Y-97269376D01*
X54494085Y-96884620D01*
X54741485Y-96511651D01*
X55003310Y-96150577D01*
X55278428Y-95801506D01*
X55863999Y-95139811D01*
X56489123Y-94527437D01*
X57144723Y-93965254D01*
X57821722Y-93454133D01*
X58511044Y-92994942D01*
X59203613Y-92588554D01*
X59890352Y-92235838D01*
X60562185Y-91937664D01*
X61210036Y-91694902D01*
X61643665Y-91542269D01*
X62070717Y-91379952D01*
X62489952Y-91206916D01*
X62900129Y-91022129D01*
X63300007Y-90824554D01*
X63688345Y-90613158D01*
X64063902Y-90386907D01*
X64425439Y-90144766D01*
X64771713Y-89885701D01*
X65101485Y-89608678D01*
X65413513Y-89312661D01*
X65706556Y-88996618D01*
X65979375Y-88659513D01*
X66230727Y-88300313D01*
X66459373Y-87917982D01*
X66664071Y-87511487D01*
X66728502Y-87361473D01*
X66783940Y-87212328D01*
X66830842Y-87063963D01*
X66869662Y-86916288D01*
X66900857Y-86769214D01*
X66924882Y-86622652D01*
X66942192Y-86476511D01*
X66953244Y-86330704D01*
X66958392Y-86039729D01*
X66943972Y-85749012D01*
X66913628Y-85457838D01*
X66871005Y-85165492D01*
X66650609Y-83970084D01*
X66601257Y-83661150D01*
X66561494Y-83346754D01*
X66534963Y-83026179D01*
X66525310Y-82698711D01*
X66530961Y-82549048D01*
X66547775Y-82393764D01*
X66575546Y-82233540D01*
X66614065Y-82069056D01*
X66663124Y-81900992D01*
X66722517Y-81730029D01*
X66792035Y-81556846D01*
X66871470Y-81382123D01*
X67059263Y-81030781D01*
X67284234Y-80681444D01*
X67410143Y-80509227D01*
X67544723Y-80339552D01*
X67687767Y-80173098D01*
X67839067Y-80010547D01*
X67998416Y-79852577D01*
X68165606Y-79699870D01*
X68340430Y-79553106D01*
X68522678Y-79412963D01*
X68712145Y-79280124D01*
X68908622Y-79155267D01*
X69111902Y-79039074D01*
X69321776Y-78932224D01*
X69538038Y-78835397D01*
X69760480Y-78749273D01*
X69988893Y-78674533D01*
X70223071Y-78611858D01*
X70462805Y-78561926D01*
X70707888Y-78525418D01*
X70958113Y-78503014D01*
X71213271Y-78495395D01*
X71500000Y-78500000D01*
M02*
