%TF.GenerationSoftware,KiCad,Pcbnew,9.0.6*%
%TF.CreationDate,2025-11-09T23:23:57-08:00*%
%TF.ProjectId,mfzh25_token,6d667a68-3235-45f7-946f-6b656e2e6b69,rev?*%
%TF.SameCoordinates,Original*%
%TF.FileFunction,Soldermask,Top*%
%TF.FilePolarity,Negative*%
%FSLAX46Y46*%
G04 Gerber Fmt 4.6, Leading zero omitted, Abs format (unit mm)*
G04 Created by KiCad (PCBNEW 9.0.6) date 2025-11-09 23:23:57*
%MOMM*%
%LPD*%
G01*
G04 APERTURE LIST*
%ADD10C,0.000000*%
G04 APERTURE END LIST*
D10*
%TO.C,G\u002A\u002A\u002A*%
G36*
X45789014Y-134749478D02*
G01*
X46037524Y-134826396D01*
X46317936Y-134958123D01*
X46637637Y-135147168D01*
X47004015Y-135396039D01*
X47140134Y-135494440D01*
X47440797Y-135717352D01*
X47679863Y-135901736D01*
X47866456Y-136055869D01*
X48009701Y-136188028D01*
X48118724Y-136306490D01*
X48202650Y-136419531D01*
X48254153Y-136504902D01*
X48322385Y-136639748D01*
X48360128Y-136756965D01*
X48375334Y-136892131D01*
X48376420Y-137051919D01*
X48330578Y-137403689D01*
X48203726Y-137772079D01*
X47997191Y-138153393D01*
X47960158Y-138210365D01*
X47863168Y-138353159D01*
X47782210Y-138452181D01*
X47698479Y-138516314D01*
X47593171Y-138554440D01*
X47447484Y-138575442D01*
X47242613Y-138588201D01*
X47151251Y-138592464D01*
X46941875Y-138603834D01*
X46754974Y-138617181D01*
X46611789Y-138630786D01*
X46536393Y-138642187D01*
X46408703Y-138636083D01*
X46234604Y-138564084D01*
X46230721Y-138562020D01*
X46069117Y-138468660D01*
X45858139Y-138336376D01*
X45616011Y-138177459D01*
X45360955Y-138004199D01*
X45111195Y-137828889D01*
X44884955Y-137663818D01*
X44775118Y-137580271D01*
X44539595Y-137383792D01*
X44369751Y-137206412D01*
X44253862Y-137032572D01*
X44180206Y-136846713D01*
X44159421Y-136763088D01*
X44138334Y-136479469D01*
X44183339Y-136171991D01*
X44285930Y-135857135D01*
X44437598Y-135551384D01*
X44629838Y-135271218D01*
X44854142Y-135033121D01*
X45102004Y-134853573D01*
X45161018Y-134822503D01*
X45358149Y-134750040D01*
X45565018Y-134724863D01*
X45789014Y-134749478D01*
G37*
G36*
X46042744Y-131393409D02*
G01*
X46166951Y-131405424D01*
X46281345Y-131434135D01*
X46412505Y-131486652D01*
X46587008Y-131570082D01*
X46628284Y-131590525D01*
X46849149Y-131706121D01*
X47077722Y-131836037D01*
X47300090Y-131971244D01*
X47502336Y-132102711D01*
X47670546Y-132221410D01*
X47790803Y-132318309D01*
X47847973Y-132381976D01*
X47860992Y-132448496D01*
X47871882Y-132586725D01*
X47880636Y-132783604D01*
X47887247Y-133026070D01*
X47891708Y-133301062D01*
X47894012Y-133595520D01*
X47894153Y-133896381D01*
X47892122Y-134190584D01*
X47887913Y-134465070D01*
X47881520Y-134706775D01*
X47872935Y-134902640D01*
X47862151Y-135039602D01*
X47849425Y-135104122D01*
X47789990Y-135168407D01*
X47700162Y-135184605D01*
X47572029Y-135150510D01*
X47397678Y-135063912D01*
X47169196Y-134922606D01*
X47147450Y-134908282D01*
X46803867Y-134691427D01*
X46495671Y-134521902D01*
X46197493Y-134387870D01*
X45883961Y-134277495D01*
X45652854Y-134210932D01*
X45390883Y-134137594D01*
X45192225Y-134072924D01*
X45037136Y-134008447D01*
X44905870Y-133935685D01*
X44778685Y-133846159D01*
X44748161Y-133822484D01*
X44566978Y-133630337D01*
X44456933Y-133398775D01*
X44417549Y-133133808D01*
X44448346Y-132841446D01*
X44548848Y-132527700D01*
X44718577Y-132198580D01*
X44898216Y-131935719D01*
X45030961Y-131781685D01*
X45184362Y-131634868D01*
X45316833Y-131532881D01*
X45435955Y-131461011D01*
X45535835Y-131418565D01*
X45646941Y-131397897D01*
X45799741Y-131391357D01*
X45882145Y-131390984D01*
X46042744Y-131393409D01*
G37*
G36*
X47394410Y-139066393D02*
G01*
X47587488Y-139129288D01*
X47703930Y-139196658D01*
X47787816Y-139286496D01*
X47846178Y-139414295D01*
X47886050Y-139595548D01*
X47914462Y-139845749D01*
X47914878Y-139850583D01*
X47961429Y-140207964D01*
X48036855Y-140499104D01*
X48146500Y-140739239D01*
X48295705Y-140943606D01*
X48299671Y-140948036D01*
X48421633Y-141098203D01*
X48474346Y-141213354D01*
X48455173Y-141310022D01*
X48361478Y-141404740D01*
X48211351Y-141501926D01*
X47954507Y-141678816D01*
X47728371Y-141883963D01*
X47551426Y-142098772D01*
X47461636Y-142256114D01*
X47423554Y-142356485D01*
X47395096Y-142472988D01*
X47373844Y-142622734D01*
X47357377Y-142822836D01*
X47343275Y-143090407D01*
X47343093Y-143094490D01*
X47330746Y-143346377D01*
X47317467Y-143532492D01*
X47299992Y-143671837D01*
X47275060Y-143783416D01*
X47239407Y-143886231D01*
X47189772Y-143999288D01*
X47186573Y-144006176D01*
X46992042Y-144352912D01*
X46767814Y-144621837D01*
X46515243Y-144812183D01*
X46235683Y-144923181D01*
X45930486Y-144954063D01*
X45603505Y-144904723D01*
X45353406Y-144817491D01*
X45089588Y-144689334D01*
X44829884Y-144532463D01*
X44592126Y-144359087D01*
X44394148Y-144181415D01*
X44253782Y-144011658D01*
X44223268Y-143959697D01*
X44164242Y-143756526D01*
X44168933Y-143502051D01*
X44236518Y-143199989D01*
X44366177Y-142854055D01*
X44550728Y-142479632D01*
X44690299Y-142226497D01*
X44851101Y-141941021D01*
X45027671Y-141632366D01*
X45214549Y-141309694D01*
X45406274Y-140982169D01*
X45597384Y-140658953D01*
X45782418Y-140349209D01*
X45955915Y-140062099D01*
X46112414Y-139806785D01*
X46246453Y-139592431D01*
X46352572Y-139428199D01*
X46425310Y-139323252D01*
X46449823Y-139293387D01*
X46638032Y-139158251D01*
X46873745Y-139073131D01*
X47133644Y-139041390D01*
X47394410Y-139066393D01*
G37*
G36*
X68513634Y-132665433D02*
G01*
X68692663Y-132671392D01*
X68824161Y-132683867D01*
X68926752Y-132705106D01*
X69019063Y-132737355D01*
X69072574Y-132760771D01*
X69254711Y-132854766D01*
X69381504Y-132952346D01*
X69479917Y-133077517D01*
X69534478Y-133171952D01*
X69625375Y-133341568D01*
X69625375Y-138009314D01*
X69625375Y-142677060D01*
X69496750Y-142885125D01*
X69384542Y-143035146D01*
X69245651Y-143148811D01*
X69120868Y-143219643D01*
X69011256Y-143272856D01*
X68914366Y-143309154D01*
X68809122Y-143332238D01*
X68674450Y-143345806D01*
X68489275Y-143353560D01*
X68337807Y-143357111D01*
X68065752Y-143358682D01*
X67858155Y-143349591D01*
X67695161Y-143328308D01*
X67572444Y-143298155D01*
X67355397Y-143200105D01*
X67162647Y-143054200D01*
X67014916Y-142879539D01*
X66937387Y-142712854D01*
X66929099Y-142649209D01*
X66921690Y-142520560D01*
X66915142Y-142324962D01*
X66909435Y-142060468D01*
X66904551Y-141725135D01*
X66900471Y-141317016D01*
X66897176Y-140834168D01*
X66894648Y-140274644D01*
X66892867Y-139636500D01*
X66891814Y-138917791D01*
X66891472Y-138116571D01*
X66891484Y-137963605D01*
X66891645Y-137240228D01*
X66891951Y-136596778D01*
X66892483Y-136028375D01*
X66893321Y-135530138D01*
X66894547Y-135097185D01*
X66896243Y-134724637D01*
X66898489Y-134407612D01*
X66901366Y-134141230D01*
X66904957Y-133920610D01*
X66909340Y-133740871D01*
X66914599Y-133597133D01*
X66920815Y-133484514D01*
X66928067Y-133398134D01*
X66936438Y-133333113D01*
X66946009Y-133284569D01*
X66956860Y-133247622D01*
X66969074Y-133217390D01*
X66970462Y-133214356D01*
X67076086Y-133037277D01*
X67219887Y-132898911D01*
X67423394Y-132779439D01*
X67463299Y-132760584D01*
X67557592Y-132720957D01*
X67650794Y-132693727D01*
X67761525Y-132676655D01*
X67908406Y-132667502D01*
X68110055Y-132664029D01*
X68268447Y-132663742D01*
X68513634Y-132665433D01*
G37*
G36*
X88587714Y-140224775D02*
G01*
X88925887Y-140321169D01*
X89210274Y-140473533D01*
X89438301Y-140675113D01*
X89607393Y-140919158D01*
X89714974Y-141198913D01*
X89758470Y-141507626D01*
X89735306Y-141838544D01*
X89642907Y-142184913D01*
X89478698Y-142539980D01*
X89240104Y-142896992D01*
X89233356Y-142905639D01*
X89146348Y-143008826D01*
X89012182Y-143158122D01*
X88843699Y-143339697D01*
X88653740Y-143539724D01*
X88455146Y-143744371D01*
X88444743Y-143754962D01*
X88263313Y-143942233D01*
X88106282Y-144109489D01*
X87982038Y-144247362D01*
X87898970Y-144346479D01*
X87865467Y-144397470D01*
X87865841Y-144401623D01*
X87914576Y-144409643D01*
X88036046Y-144416794D01*
X88218181Y-144422745D01*
X88448908Y-144427162D01*
X88716158Y-144429714D01*
X88905063Y-144430216D01*
X89915692Y-144430216D01*
X89915692Y-144854256D01*
X89915692Y-145278296D01*
X88219532Y-145278296D01*
X86523372Y-145278296D01*
X86524201Y-144928463D01*
X86525031Y-144578630D01*
X87272697Y-143772954D01*
X87598762Y-143419765D01*
X87870698Y-143120198D01*
X88093604Y-142867172D01*
X88272578Y-142653609D01*
X88412721Y-142472430D01*
X88519129Y-142316556D01*
X88596903Y-142178907D01*
X88651141Y-142052404D01*
X88686941Y-141929970D01*
X88709402Y-141804523D01*
X88713440Y-141772633D01*
X88714889Y-141519832D01*
X88653320Y-141323324D01*
X88529558Y-141184096D01*
X88344431Y-141103138D01*
X88134724Y-141080872D01*
X87851023Y-141123121D01*
X87555962Y-141249104D01*
X87288944Y-141427818D01*
X87100427Y-141574319D01*
X86833101Y-141259759D01*
X86718696Y-141121512D01*
X86628743Y-141005910D01*
X86575300Y-140928832D01*
X86565776Y-140907726D01*
X86598839Y-140858286D01*
X86686174Y-140777618D01*
X86809998Y-140679222D01*
X86952527Y-140576597D01*
X87095980Y-140483242D01*
X87209114Y-140419349D01*
X87490565Y-140307306D01*
X87812184Y-140228472D01*
X88132707Y-140192368D01*
X88198330Y-140191105D01*
X88587714Y-140224775D01*
G37*
G36*
X80931462Y-140253220D02*
G01*
X81265301Y-140377814D01*
X81434640Y-140477404D01*
X81578578Y-140588025D01*
X81686670Y-140708143D01*
X81785355Y-140868995D01*
X81816276Y-140928285D01*
X81888456Y-141076962D01*
X81932526Y-141195916D01*
X81955295Y-141316316D01*
X81963576Y-141469333D01*
X81964409Y-141606211D01*
X81960895Y-141803818D01*
X81946597Y-141949124D01*
X81914911Y-142074533D01*
X81859233Y-142212449D01*
X81826391Y-142283412D01*
X81744574Y-142447087D01*
X81656425Y-142599730D01*
X81553231Y-142752361D01*
X81426286Y-142916001D01*
X81266878Y-143101673D01*
X81066298Y-143320396D01*
X80815837Y-143583193D01*
X80725150Y-143676934D01*
X80536159Y-143873666D01*
X80368923Y-144051355D01*
X80231978Y-144200633D01*
X80133859Y-144312133D01*
X80083103Y-144376486D01*
X80077963Y-144387201D01*
X80119901Y-144402294D01*
X80243964Y-144414253D01*
X80447519Y-144422966D01*
X80727938Y-144428324D01*
X81082590Y-144430214D01*
X81095659Y-144430216D01*
X82113355Y-144430216D01*
X82113355Y-144854256D01*
X82113355Y-145278296D01*
X80438397Y-145278296D01*
X78763438Y-145278296D01*
X78763438Y-144916396D01*
X78763438Y-144554496D01*
X79635507Y-143612473D01*
X79948633Y-143271903D01*
X80207320Y-142983923D01*
X80416642Y-142740705D01*
X80581675Y-142534421D01*
X80707494Y-142357244D01*
X80799175Y-142201344D01*
X80861792Y-142058895D01*
X80900421Y-141922068D01*
X80920138Y-141783035D01*
X80926018Y-141633968D01*
X80926043Y-141621980D01*
X80921343Y-141472958D01*
X80899066Y-141374762D01*
X80846948Y-141293574D01*
X80781869Y-141224473D01*
X80695101Y-141144800D01*
X80616933Y-141101662D01*
X80515809Y-141084127D01*
X80368430Y-141081231D01*
X80136371Y-141100719D01*
X79926448Y-141164118D01*
X79712547Y-141281445D01*
X79558146Y-141392031D01*
X79444848Y-141474573D01*
X79357012Y-141530702D01*
X79320028Y-141546744D01*
X79273787Y-141515723D01*
X79194399Y-141434334D01*
X79095715Y-141320088D01*
X78991588Y-141190496D01*
X78895871Y-141063071D01*
X78822415Y-140955321D01*
X78785074Y-140884760D01*
X78784060Y-140869218D01*
X78828994Y-140826117D01*
X78924958Y-140749380D01*
X79053321Y-140653744D01*
X79087971Y-140628837D01*
X79436490Y-140423371D01*
X79808124Y-140282235D01*
X80189848Y-140206271D01*
X80568636Y-140196319D01*
X80931462Y-140253220D01*
G37*
G36*
X93392821Y-140719865D02*
G01*
X93392821Y-141165108D01*
X92526908Y-141165108D01*
X91660995Y-141165108D01*
X91638922Y-141281719D01*
X91625514Y-141378141D01*
X91609544Y-141530461D01*
X91593943Y-141709943D01*
X91590218Y-141758764D01*
X91563586Y-142119198D01*
X92128370Y-142119361D01*
X92368744Y-142121099D01*
X92543502Y-142127709D01*
X92671800Y-142141530D01*
X92772791Y-142164899D01*
X92865631Y-142200153D01*
X92893289Y-142212712D01*
X93174352Y-142388527D01*
X93411449Y-142627602D01*
X93587599Y-142912796D01*
X93588331Y-142914380D01*
X93644470Y-143043990D01*
X93680027Y-143155892D01*
X93699391Y-143276296D01*
X93706954Y-143431409D01*
X93707281Y-143624540D01*
X93701024Y-143861912D01*
X93683790Y-144041237D01*
X93651884Y-144188966D01*
X93612198Y-144305033D01*
X93451783Y-144621602D01*
X93238827Y-144876777D01*
X92966681Y-145076586D01*
X92628697Y-145227060D01*
X92576465Y-145244304D01*
X92332221Y-145300257D01*
X92034574Y-145335134D01*
X91712544Y-145347827D01*
X91395152Y-145337228D01*
X91111418Y-145302229D01*
X91102618Y-145300580D01*
X90921819Y-145261354D01*
X90751343Y-145216151D01*
X90627491Y-145174617D01*
X90625573Y-145173821D01*
X90466944Y-145107542D01*
X90466944Y-144658332D01*
X90468052Y-144459242D01*
X90472991Y-144331294D01*
X90484185Y-144260835D01*
X90504056Y-144234212D01*
X90535029Y-144237771D01*
X90541151Y-144240218D01*
X90909978Y-144372510D01*
X91268729Y-144459007D01*
X91606468Y-144499541D01*
X91912261Y-144493946D01*
X92175172Y-144442057D01*
X92384267Y-144343707D01*
X92472547Y-144269564D01*
X92597643Y-144084436D01*
X92661523Y-143868676D01*
X92666760Y-143641474D01*
X92615926Y-143422019D01*
X92511595Y-143229500D01*
X92356339Y-143083107D01*
X92309836Y-143055947D01*
X92132046Y-142994549D01*
X91896756Y-142958396D01*
X91627888Y-142949014D01*
X91349366Y-142967925D01*
X91223507Y-142986739D01*
X91069365Y-143011999D01*
X90966420Y-143016819D01*
X90882601Y-142996850D01*
X90785836Y-142947744D01*
X90740134Y-142921204D01*
X90541483Y-142804787D01*
X90566302Y-142546800D01*
X90576514Y-142429838D01*
X90591459Y-142244195D01*
X90609912Y-142005792D01*
X90630652Y-141730546D01*
X90652456Y-141434378D01*
X90663496Y-141281719D01*
X90735871Y-140274623D01*
X92064346Y-140274623D01*
X93392821Y-140274623D01*
X93392821Y-140719865D01*
G37*
G36*
X84297161Y-140212104D02*
G01*
X84514919Y-140214931D01*
X84671186Y-140224607D01*
X84789216Y-140244721D01*
X84892263Y-140278859D01*
X84975625Y-140316760D01*
X85258394Y-140501248D01*
X85502999Y-140756728D01*
X85704542Y-141076179D01*
X85858122Y-141452579D01*
X85916617Y-141665129D01*
X85946633Y-141814767D01*
X85968181Y-141979654D01*
X85982384Y-142176392D01*
X85990368Y-142421582D01*
X85993256Y-142731826D01*
X85993321Y-142797662D01*
X85988185Y-143197675D01*
X85971126Y-143528629D01*
X85939671Y-143805746D01*
X85891344Y-144044246D01*
X85823672Y-144259352D01*
X85734181Y-144466285D01*
X85716165Y-144502648D01*
X85517298Y-144810922D01*
X85267904Y-145053806D01*
X84974898Y-145228300D01*
X84645195Y-145331408D01*
X84285709Y-145360130D01*
X83903355Y-145311469D01*
X83869173Y-145303462D01*
X83561385Y-145186291D01*
X83291589Y-144994502D01*
X83061362Y-144730068D01*
X82872280Y-144394962D01*
X82725917Y-143991158D01*
X82680727Y-143815358D01*
X82643913Y-143592695D01*
X82618683Y-143308512D01*
X82605031Y-142985302D01*
X82603882Y-142797662D01*
X83642218Y-142797662D01*
X83655314Y-143267166D01*
X83694103Y-143657928D01*
X83759486Y-143972307D01*
X83852365Y-144212664D01*
X83973641Y-144381361D01*
X84124216Y-144480756D01*
X84297161Y-144513168D01*
X84421397Y-144491610D01*
X84551341Y-144437134D01*
X84560128Y-144431933D01*
X84672354Y-144339161D01*
X84758679Y-144227543D01*
X84761768Y-144221750D01*
X84841776Y-144011744D01*
X84904209Y-143736037D01*
X84948520Y-143412007D01*
X84974163Y-143057034D01*
X84980591Y-142688496D01*
X84967258Y-142323773D01*
X84933618Y-141980244D01*
X84879125Y-141675287D01*
X84845780Y-141548976D01*
X84746849Y-141317321D01*
X84611686Y-141151360D01*
X84446817Y-141057418D01*
X84318548Y-141037896D01*
X84138135Y-141066246D01*
X83988023Y-141153689D01*
X83866831Y-141303814D01*
X83773182Y-141520208D01*
X83705696Y-141806460D01*
X83662993Y-142166160D01*
X83643696Y-142602894D01*
X83642218Y-142797662D01*
X82603882Y-142797662D01*
X82602951Y-142645558D01*
X82612435Y-142311772D01*
X82633477Y-142006436D01*
X82666070Y-141752044D01*
X82681362Y-141673956D01*
X82805262Y-141259837D01*
X82977921Y-140907448D01*
X83196771Y-140620586D01*
X83459241Y-140403051D01*
X83591495Y-140328496D01*
X83706431Y-140275741D01*
X83808940Y-140241665D01*
X83922933Y-140222324D01*
X84072321Y-140213774D01*
X84281015Y-140212072D01*
X84297161Y-140212104D01*
G37*
G36*
X71121125Y-131460754D02*
G01*
X71344980Y-131469534D01*
X71507157Y-131482817D01*
X71630787Y-131504833D01*
X71738999Y-131539807D01*
X71854924Y-131591968D01*
X71864349Y-131596580D01*
X72089419Y-131742417D01*
X72248830Y-131932471D01*
X72354671Y-132181406D01*
X72359055Y-132196660D01*
X72366223Y-132248898D01*
X72372612Y-132353592D01*
X72378235Y-132513279D01*
X72383108Y-132730495D01*
X72387245Y-133007776D01*
X72390660Y-133347660D01*
X72393367Y-133752682D01*
X72395381Y-134225378D01*
X72396717Y-134768286D01*
X72397388Y-135383942D01*
X72397410Y-136074882D01*
X72396796Y-136843643D01*
X72395561Y-137692760D01*
X72394228Y-138387645D01*
X72381635Y-144409014D01*
X72280438Y-144614577D01*
X72172774Y-144783041D01*
X72028789Y-144908253D01*
X71829061Y-145004810D01*
X71707283Y-145045388D01*
X71518754Y-145085696D01*
X71276886Y-145114167D01*
X71009984Y-145129751D01*
X70746358Y-145131394D01*
X70514315Y-145118046D01*
X70367445Y-145095172D01*
X70080886Y-145003481D01*
X69866384Y-144876135D01*
X69716219Y-144706249D01*
X69622669Y-144486939D01*
X69605602Y-144415898D01*
X69578980Y-144207330D01*
X69598577Y-144024175D01*
X69671227Y-143844539D01*
X69803767Y-143646527D01*
X69872836Y-143559994D01*
X69929343Y-143493694D01*
X69979907Y-143436074D01*
X70024863Y-143382326D01*
X70064545Y-143327640D01*
X70099285Y-143267208D01*
X70129419Y-143196220D01*
X70155281Y-143109868D01*
X70177204Y-143003343D01*
X70195522Y-142871836D01*
X70210569Y-142710537D01*
X70222680Y-142514639D01*
X70232188Y-142279332D01*
X70239427Y-141999806D01*
X70244732Y-141671254D01*
X70248435Y-141288867D01*
X70250872Y-140847834D01*
X70252377Y-140343349D01*
X70253282Y-139770600D01*
X70253922Y-139124780D01*
X70254632Y-138401080D01*
X70255052Y-138056574D01*
X70256150Y-137291519D01*
X70257119Y-136606470D01*
X70257693Y-135996628D01*
X70257607Y-135457190D01*
X70256595Y-134983356D01*
X70254389Y-134570326D01*
X70250724Y-134213297D01*
X70245334Y-133907468D01*
X70237952Y-133648040D01*
X70228313Y-133430211D01*
X70216149Y-133249179D01*
X70201196Y-133100144D01*
X70183186Y-132978305D01*
X70161853Y-132878861D01*
X70136932Y-132797011D01*
X70108156Y-132727954D01*
X70075259Y-132666888D01*
X70037975Y-132609013D01*
X69996037Y-132549528D01*
X69949180Y-132483632D01*
X69945792Y-132478775D01*
X69823632Y-132287403D01*
X69758496Y-132139557D01*
X69746490Y-132019757D01*
X69783724Y-131912523D01*
X69797708Y-131889734D01*
X69897961Y-131761384D01*
X70017855Y-131666180D01*
X70181249Y-131588429D01*
X70336650Y-131535246D01*
X70484108Y-131494322D01*
X70624712Y-131469363D01*
X70784445Y-131457902D01*
X70989287Y-131457472D01*
X71121125Y-131460754D01*
G37*
G36*
X66128656Y-131580554D02*
G01*
X66408288Y-131640083D01*
X66632589Y-131729507D01*
X66790267Y-131846151D01*
X66823908Y-131887498D01*
X66877867Y-131995221D01*
X66883457Y-132108802D01*
X66836783Y-132242996D01*
X66733951Y-132412558D01*
X66657100Y-132519460D01*
X66542430Y-132687490D01*
X66441972Y-132859684D01*
X66372835Y-133005933D01*
X66360272Y-133041836D01*
X66349404Y-133120317D01*
X66339428Y-133276939D01*
X66330344Y-133505039D01*
X66322151Y-133797952D01*
X66314849Y-134149018D01*
X66308439Y-134551571D01*
X66302920Y-134998950D01*
X66298292Y-135484491D01*
X66294556Y-136001532D01*
X66291712Y-136543409D01*
X66289759Y-137103460D01*
X66288697Y-137675021D01*
X66288527Y-138251430D01*
X66289248Y-138826023D01*
X66290861Y-139392138D01*
X66293365Y-139943111D01*
X66296760Y-140472280D01*
X66301047Y-140972981D01*
X66306226Y-141438552D01*
X66312296Y-141862330D01*
X66319258Y-142237651D01*
X66327110Y-142557852D01*
X66335855Y-142816272D01*
X66345491Y-143006246D01*
X66356018Y-143121112D01*
X66360266Y-143143734D01*
X66408153Y-143406111D01*
X66421364Y-143673018D01*
X66400342Y-143917077D01*
X66345532Y-144110909D01*
X66344548Y-144113090D01*
X66211288Y-144316286D01*
X66007533Y-144511791D01*
X65747561Y-144694324D01*
X65445651Y-144858602D01*
X65116081Y-144999345D01*
X64773130Y-145111269D01*
X64431076Y-145189093D01*
X64104197Y-145227534D01*
X63806773Y-145221312D01*
X63553081Y-145165143D01*
X63527359Y-145155244D01*
X63279257Y-145030181D01*
X63092955Y-144873609D01*
X62946187Y-144665190D01*
X62905389Y-144587187D01*
X62802029Y-144302393D01*
X62766256Y-144017065D01*
X62796891Y-143746602D01*
X62892759Y-143506406D01*
X62998901Y-143363617D01*
X63086221Y-143282482D01*
X63192790Y-143210314D01*
X63335238Y-143138437D01*
X63530194Y-143058173D01*
X63718769Y-142988015D01*
X64078351Y-142826441D01*
X64364361Y-142627862D01*
X64580957Y-142389191D01*
X64633479Y-142308546D01*
X64730541Y-142134146D01*
X64798037Y-141974531D01*
X64840654Y-141807788D01*
X64863080Y-141612006D01*
X64870001Y-141365274D01*
X64869002Y-141207512D01*
X64852780Y-140803895D01*
X64812590Y-140464107D01*
X64743327Y-140169293D01*
X64639887Y-139900596D01*
X64497165Y-139639163D01*
X64407330Y-139502151D01*
X64343005Y-139398414D01*
X64294124Y-139289860D01*
X64259065Y-139163903D01*
X64236203Y-139007955D01*
X64223917Y-138809430D01*
X64220583Y-138555743D01*
X64224579Y-138234307D01*
X64227345Y-138106224D01*
X64234259Y-137836332D01*
X64242325Y-137633604D01*
X64254023Y-137480403D01*
X64271833Y-137359096D01*
X64298237Y-137252047D01*
X64335713Y-137141621D01*
X64378607Y-137030717D01*
X64491684Y-136726581D01*
X64570091Y-136462896D01*
X64619521Y-136209464D01*
X64645665Y-135936083D01*
X64654214Y-135612556D01*
X64654329Y-135567779D01*
X64640299Y-135151386D01*
X64594963Y-134795340D01*
X64514291Y-134479683D01*
X64394250Y-134184458D01*
X64361764Y-134119507D01*
X64320606Y-134037385D01*
X64290471Y-133964086D01*
X64269681Y-133884864D01*
X64256555Y-133784973D01*
X64249415Y-133649665D01*
X64246582Y-133464195D01*
X64246374Y-133213814D01*
X64246611Y-133108346D01*
X64248694Y-132813838D01*
X64254010Y-132590488D01*
X64263617Y-132424672D01*
X64278575Y-132302769D01*
X64299942Y-132211156D01*
X64320755Y-132154256D01*
X64434761Y-131953748D01*
X64591165Y-131799467D01*
X64799292Y-131686514D01*
X65068467Y-131609992D01*
X65408014Y-131565003D01*
X65448580Y-131561877D01*
X65804989Y-131553594D01*
X66128656Y-131580554D01*
G37*
G36*
X61731077Y-131477797D02*
G01*
X61920358Y-131494558D01*
X62200222Y-131542861D01*
X62410818Y-131617244D01*
X62565575Y-131724989D01*
X62677924Y-131873376D01*
X62701030Y-131917825D01*
X62730935Y-131984924D01*
X62754080Y-132055261D01*
X62771594Y-132140995D01*
X62784605Y-132254287D01*
X62794242Y-132407297D01*
X62801633Y-132612186D01*
X62807907Y-132881114D01*
X62812286Y-133116721D01*
X62830016Y-134122418D01*
X63026193Y-134145437D01*
X63360089Y-134194082D01*
X63620293Y-134257537D01*
X63817653Y-134343858D01*
X63963016Y-134461099D01*
X64067230Y-134617316D01*
X64141141Y-134820566D01*
X64182337Y-135004028D01*
X64204271Y-135194393D01*
X64211675Y-135432712D01*
X64205830Y-135693528D01*
X64188015Y-135951378D01*
X64159511Y-136180805D01*
X64121599Y-136356347D01*
X64112989Y-136382782D01*
X63993630Y-136597746D01*
X63808821Y-136769353D01*
X63569418Y-136891251D01*
X63286278Y-136957092D01*
X63113856Y-136967111D01*
X62974455Y-136979608D01*
X62881066Y-137012512D01*
X62866516Y-137025198D01*
X62851777Y-137073842D01*
X62840581Y-137182984D01*
X62832806Y-137357278D01*
X62828326Y-137601373D01*
X62827019Y-137919923D01*
X62828760Y-138317579D01*
X62829521Y-138413929D01*
X62840734Y-139744573D01*
X63307178Y-139765775D01*
X63605073Y-139791530D01*
X63832866Y-139845210D01*
X64003479Y-139937431D01*
X64129833Y-140078809D01*
X64224849Y-140279959D01*
X64301448Y-140551496D01*
X64310107Y-140589726D01*
X64341908Y-140789759D01*
X64360336Y-141026532D01*
X64365412Y-141274904D01*
X64357158Y-141509734D01*
X64335597Y-141705882D01*
X64309043Y-141817311D01*
X64212620Y-142001024D01*
X64064079Y-142184074D01*
X63890656Y-142335879D01*
X63794717Y-142394878D01*
X63618057Y-142469061D01*
X63370517Y-142550271D01*
X63065464Y-142635818D01*
X62716266Y-142723011D01*
X62336291Y-142809159D01*
X61938908Y-142891571D01*
X61537485Y-142967556D01*
X61145390Y-143034422D01*
X60775990Y-143089479D01*
X60442655Y-143130035D01*
X60158753Y-143153399D01*
X60003368Y-143158096D01*
X59804220Y-143155159D01*
X59662131Y-143142883D01*
X59549454Y-143116065D01*
X59438544Y-143069506D01*
X59383196Y-143041434D01*
X59152851Y-142874034D01*
X58973529Y-142640006D01*
X58845957Y-142341008D01*
X58770863Y-141978696D01*
X58748747Y-141596247D01*
X58776752Y-141234334D01*
X58862743Y-140933289D01*
X59009683Y-140689446D01*
X59220538Y-140499135D01*
X59498271Y-140358690D01*
X59821141Y-140269222D01*
X60010375Y-140214840D01*
X60120016Y-140143103D01*
X60128570Y-140132126D01*
X60145555Y-140095499D01*
X60159242Y-140033637D01*
X60169960Y-139938297D01*
X60178036Y-139801237D01*
X60183797Y-139614214D01*
X60187569Y-139368985D01*
X60189681Y-139057308D01*
X60190459Y-138670941D01*
X60190483Y-138572057D01*
X60190481Y-138161060D01*
X60189442Y-137826922D01*
X60185821Y-137561698D01*
X60178073Y-137357438D01*
X60164652Y-137206197D01*
X60144013Y-137100028D01*
X60114609Y-137030983D01*
X60074895Y-136991116D01*
X60023326Y-136972480D01*
X59958356Y-136967127D01*
X59878439Y-136967111D01*
X59878333Y-136967111D01*
X59672123Y-136948744D01*
X59449098Y-136899786D01*
X59241415Y-136829451D01*
X59081230Y-136746952D01*
X59062171Y-136733250D01*
X58957785Y-136627932D01*
X58862251Y-136490926D01*
X58839959Y-136448815D01*
X58769219Y-136244678D01*
X58719262Y-135983487D01*
X58692928Y-135691075D01*
X58693057Y-135393277D01*
X58706070Y-135230945D01*
X58754825Y-134931353D01*
X58831394Y-134694170D01*
X58945410Y-134510680D01*
X59106507Y-134372165D01*
X59324318Y-134269908D01*
X59608477Y-134195191D01*
X59903268Y-134147630D01*
X60028388Y-134122026D01*
X60116267Y-134087433D01*
X60135957Y-134070587D01*
X60146479Y-134014959D01*
X60157889Y-133887527D01*
X60169431Y-133701284D01*
X60180347Y-133469218D01*
X60189880Y-133204319D01*
X60193270Y-133087144D01*
X60202244Y-132776988D01*
X60211222Y-132539039D01*
X60221521Y-132360705D01*
X60234462Y-132229396D01*
X60251361Y-132132519D01*
X60273537Y-132057484D01*
X60302310Y-131991699D01*
X60309454Y-131977610D01*
X60392291Y-131848904D01*
X60488891Y-131741318D01*
X60518154Y-131717602D01*
X60744908Y-131599980D01*
X61033293Y-131519111D01*
X61367339Y-131477537D01*
X61731077Y-131477797D01*
G37*
G36*
X53463429Y-137265545D02*
G01*
X53793554Y-137309964D01*
X54057369Y-137391173D01*
X54261289Y-137512330D01*
X54411729Y-137676589D01*
X54515107Y-137887107D01*
X54544673Y-137984807D01*
X54616385Y-138260433D01*
X55845087Y-138285112D01*
X56164529Y-138292577D01*
X56460426Y-138301484D01*
X56720986Y-138311321D01*
X56934415Y-138321576D01*
X57088923Y-138331737D01*
X57172718Y-138341294D01*
X57179799Y-138343039D01*
X57371487Y-138441914D01*
X57541114Y-138600306D01*
X57658367Y-138785884D01*
X57710497Y-138941809D01*
X57744784Y-139142879D01*
X57764446Y-139405818D01*
X57764432Y-139795242D01*
X57723623Y-140113080D01*
X57638840Y-140363758D01*
X57506903Y-140551701D01*
X57324632Y-140681334D01*
X57088847Y-140757082D01*
X56796370Y-140783369D01*
X56774490Y-140783471D01*
X56560389Y-140786898D01*
X56310591Y-140795954D01*
X56073880Y-140808804D01*
X56040068Y-140811118D01*
X55650580Y-140838765D01*
X55747326Y-140942626D01*
X55841117Y-141021265D01*
X56000504Y-141129732D01*
X56214476Y-141261469D01*
X56472022Y-141409921D01*
X56762133Y-141568529D01*
X57052587Y-141719950D01*
X57356716Y-141887395D01*
X57591453Y-142047703D01*
X57770135Y-142212402D01*
X57906099Y-142393017D01*
X57973810Y-142516035D01*
X58037008Y-142659753D01*
X58072516Y-142790612D01*
X58087402Y-142944018D01*
X58089289Y-143094490D01*
X58083192Y-143287059D01*
X58062456Y-143429653D01*
X58019757Y-143556790D01*
X57968564Y-143663438D01*
X57816756Y-143903695D01*
X57626117Y-144125713D01*
X57417434Y-144308430D01*
X57211495Y-144430779D01*
X57211152Y-144430927D01*
X56965009Y-144500155D01*
X56694348Y-144504800D01*
X56395846Y-144443576D01*
X56066178Y-144315194D01*
X55702023Y-144118368D01*
X55300055Y-143851810D01*
X54868781Y-143523727D01*
X54731514Y-143417708D01*
X54616120Y-143335949D01*
X54540347Y-143290716D01*
X54524085Y-143285544D01*
X54501451Y-143325310D01*
X54481161Y-143445740D01*
X54463055Y-143648184D01*
X54446978Y-143933990D01*
X54446103Y-143953171D01*
X54433349Y-144211799D01*
X54420289Y-144401779D01*
X54404371Y-144539239D01*
X54383043Y-144640310D01*
X54353754Y-144721121D01*
X54313952Y-144797801D01*
X54311925Y-144801323D01*
X54185925Y-144960918D01*
X54011093Y-145077824D01*
X53774784Y-145159090D01*
X53612382Y-145191417D01*
X53375665Y-145217096D01*
X53099041Y-145227988D01*
X52825289Y-145223451D01*
X52621368Y-145206272D01*
X52317472Y-145135751D01*
X52080152Y-145012955D01*
X51908039Y-144836361D01*
X51799763Y-144604444D01*
X51753952Y-144315680D01*
X51752103Y-144239398D01*
X51748375Y-144045740D01*
X51738957Y-143838632D01*
X51725331Y-143635305D01*
X51708977Y-143452987D01*
X51691378Y-143308908D01*
X51674014Y-143220297D01*
X51662788Y-143200500D01*
X51617962Y-143223162D01*
X51515532Y-143285885D01*
X51367844Y-143380776D01*
X51187240Y-143499939D01*
X51042762Y-143597007D01*
X50796564Y-143757505D01*
X50525086Y-143924453D01*
X50256736Y-144080970D01*
X50019919Y-144210179D01*
X49956540Y-144242453D01*
X49737575Y-144348917D01*
X49572086Y-144421550D01*
X49439217Y-144467352D01*
X49318113Y-144493326D01*
X49187918Y-144506474D01*
X49166299Y-144507774D01*
X48865571Y-144498687D01*
X48611541Y-144430345D01*
X48394594Y-144296604D01*
X48205116Y-144091322D01*
X48033493Y-143808353D01*
X48015338Y-143772315D01*
X47871737Y-143408575D01*
X47809133Y-143061600D01*
X47827813Y-142733741D01*
X47869490Y-142572356D01*
X47928841Y-142430692D01*
X48013178Y-142302524D01*
X48132689Y-142179202D01*
X48297559Y-142052076D01*
X48517975Y-141912496D01*
X48804124Y-141751812D01*
X48889816Y-141705898D01*
X49198823Y-141537853D01*
X49480244Y-141377670D01*
X49725711Y-141230648D01*
X49926854Y-141102084D01*
X50075306Y-140997278D01*
X50162698Y-140921527D01*
X50183138Y-140887118D01*
X50143079Y-140857529D01*
X50032268Y-140830755D01*
X49864753Y-140808503D01*
X49654583Y-140792484D01*
X49415807Y-140784405D01*
X49333442Y-140783773D01*
X49040180Y-140750213D01*
X48799766Y-140650747D01*
X48613270Y-140486157D01*
X48481761Y-140257223D01*
X48440376Y-140131823D01*
X48422275Y-140015536D01*
X48410629Y-139838044D01*
X48406511Y-139622777D01*
X48409053Y-139449162D01*
X48427009Y-139140725D01*
X48463914Y-138902200D01*
X48525219Y-138719773D01*
X48616372Y-138579628D01*
X48742822Y-138467952D01*
X48814014Y-138422529D01*
X49005693Y-138310198D01*
X50304682Y-138290827D01*
X50669285Y-138284042D01*
X50988603Y-138275397D01*
X51254787Y-138265251D01*
X51459989Y-138253964D01*
X51596362Y-138241895D01*
X51656058Y-138229402D01*
X51656677Y-138228950D01*
X51694620Y-138159207D01*
X51710613Y-138053822D01*
X51737421Y-137892936D01*
X51805017Y-137722381D01*
X51897215Y-137575729D01*
X51978838Y-137497501D01*
X52159521Y-137396770D01*
X52356156Y-137326358D01*
X52587749Y-137282001D01*
X52873306Y-137259434D01*
X53060578Y-137254762D01*
X53463429Y-137265545D01*
G37*
G36*
X52012785Y-131607955D02*
G01*
X52536652Y-131608571D01*
X53138245Y-131609666D01*
X53243369Y-131609881D01*
X53931235Y-131611753D01*
X54537516Y-131614396D01*
X55065430Y-131617861D01*
X55518196Y-131622199D01*
X55899034Y-131627461D01*
X56211162Y-131633699D01*
X56457801Y-131640964D01*
X56642168Y-131649308D01*
X56767483Y-131658782D01*
X56826507Y-131667030D01*
X57115842Y-131749234D01*
X57386419Y-131869493D01*
X57614703Y-132015683D01*
X57751368Y-132143513D01*
X57827201Y-132237924D01*
X57888104Y-132332170D01*
X57935562Y-132436446D01*
X57971059Y-132560948D01*
X57996079Y-132715872D01*
X58012109Y-132911414D01*
X58020632Y-133157769D01*
X58023132Y-133465134D01*
X58021095Y-133843705D01*
X58019679Y-133986138D01*
X58015558Y-134342319D01*
X58011145Y-134623983D01*
X58005686Y-134841419D01*
X57998431Y-135004918D01*
X57988627Y-135124769D01*
X57975522Y-135211261D01*
X57958364Y-135274685D01*
X57936400Y-135325330D01*
X57919576Y-135355615D01*
X57781652Y-135523304D01*
X57600738Y-135648996D01*
X57400230Y-135721390D01*
X57203524Y-135729184D01*
X57162981Y-135721082D01*
X57088902Y-135677700D01*
X57014615Y-135577389D01*
X56940348Y-135430188D01*
X56775957Y-135075315D01*
X56629611Y-134773849D01*
X56504202Y-134531237D01*
X56402621Y-134352927D01*
X56327759Y-134244365D01*
X56294750Y-134213759D01*
X56173477Y-134177246D01*
X56034439Y-134172437D01*
X55923370Y-134200454D01*
X55916552Y-134204469D01*
X55905782Y-134236216D01*
X55920418Y-134308101D01*
X55963424Y-134427884D01*
X56037763Y-134603327D01*
X56146398Y-134842190D01*
X56220513Y-135000594D01*
X56412134Y-135421278D01*
X56557925Y-135777935D01*
X56657613Y-136078074D01*
X56710921Y-136329204D01*
X56717576Y-136538832D01*
X56677303Y-136714466D01*
X56589826Y-136863616D01*
X56454872Y-136993789D01*
X56272164Y-137112494D01*
X56140717Y-137180746D01*
X55848559Y-137298184D01*
X55576675Y-137359466D01*
X55340388Y-137361696D01*
X55263262Y-137346497D01*
X55131026Y-137298616D01*
X55011153Y-137224588D01*
X54896079Y-137114981D01*
X54778237Y-136960365D01*
X54650064Y-136751307D01*
X54503993Y-136478377D01*
X54399484Y-136269612D01*
X54267378Y-136003326D01*
X54128231Y-135726904D01*
X53993918Y-135463668D01*
X53876313Y-135236939D01*
X53809701Y-135111344D01*
X53696488Y-134891811D01*
X53623874Y-134726113D01*
X53585458Y-134597492D01*
X53574809Y-134496486D01*
X53566476Y-134370837D01*
X53546490Y-134277392D01*
X53538916Y-134261287D01*
X53471769Y-134222096D01*
X53356905Y-134205137D01*
X53228430Y-134210328D01*
X53120446Y-134237586D01*
X53081697Y-134262399D01*
X53048964Y-134329729D01*
X53011801Y-134460307D01*
X52975625Y-134633146D01*
X52957228Y-134744498D01*
X52888590Y-135143675D01*
X52805958Y-135524481D01*
X52713182Y-135873902D01*
X52614113Y-136178925D01*
X52512601Y-136426536D01*
X52412495Y-136603722D01*
X52403594Y-136615892D01*
X52313181Y-136708228D01*
X52177940Y-136815065D01*
X52039566Y-136905621D01*
X51892811Y-137002541D01*
X51713348Y-137137027D01*
X51529245Y-137287497D01*
X51433695Y-137371502D01*
X51279923Y-137505437D01*
X51135803Y-137620963D01*
X51020294Y-137703408D01*
X50964898Y-137734286D01*
X50871742Y-137754741D01*
X50713603Y-137772117D01*
X50510271Y-137785845D01*
X50281535Y-137795356D01*
X50047182Y-137800081D01*
X49827003Y-137799449D01*
X49640785Y-137792893D01*
X49508317Y-137779842D01*
X49491326Y-137776680D01*
X49291829Y-137705186D01*
X49132947Y-137576203D01*
X48999166Y-137376785D01*
X48989289Y-137357802D01*
X48885723Y-137092031D01*
X48842763Y-136828935D01*
X48859816Y-136584238D01*
X48936290Y-136373661D01*
X49031067Y-136248771D01*
X49113403Y-136183332D01*
X49250355Y-136090766D01*
X49421851Y-135984112D01*
X49582284Y-135890712D01*
X49943577Y-135663725D01*
X50226167Y-135431249D01*
X50436128Y-135185473D01*
X50579533Y-134918588D01*
X50662455Y-134622783D01*
X50681783Y-134476793D01*
X50690770Y-134346276D01*
X50680079Y-134274113D01*
X50640041Y-134234443D01*
X50581752Y-134209244D01*
X50443340Y-134182626D01*
X50339614Y-134226083D01*
X50264031Y-134344443D01*
X50224778Y-134472691D01*
X50142668Y-134739715D01*
X50028536Y-134951861D01*
X49866033Y-135137598D01*
X49817521Y-135181846D01*
X49548311Y-135391562D01*
X49296516Y-135533243D01*
X49069462Y-135603135D01*
X48981476Y-135610183D01*
X48847513Y-135599986D01*
X48747874Y-135557410D01*
X48640928Y-135464475D01*
X48638521Y-135462071D01*
X48567952Y-135386263D01*
X48511549Y-135308412D01*
X48467822Y-135218439D01*
X48435282Y-135106261D01*
X48412439Y-134961798D01*
X48397806Y-134774967D01*
X48389892Y-134535688D01*
X48387208Y-134233880D01*
X48388265Y-133859461D01*
X48388816Y-133771664D01*
X48391277Y-133424461D01*
X48394126Y-133151015D01*
X48398285Y-132940276D01*
X48404681Y-132781196D01*
X48414239Y-132662724D01*
X48427882Y-132573811D01*
X48446536Y-132503408D01*
X48471126Y-132440466D01*
X48502577Y-132373934D01*
X48506474Y-132365965D01*
X48648774Y-132147796D01*
X48846171Y-131969768D01*
X49106590Y-131826776D01*
X49437957Y-131713716D01*
X49570391Y-131680680D01*
X49636961Y-131666385D01*
X49708117Y-131653979D01*
X49789954Y-131643345D01*
X49888566Y-131634364D01*
X50010049Y-131626919D01*
X50160497Y-131620893D01*
X50346006Y-131616169D01*
X50572671Y-131612628D01*
X50846586Y-131610154D01*
X51173847Y-131608629D01*
X51560548Y-131607935D01*
X52012785Y-131607955D01*
G37*
%TD*%
M02*
