M48
; DRILL file {KiCad 9.0.6} date 2025-11-09T23:24:02-0800
; FORMAT={-:-/ absolute / metric / decimal}
; #@! TF.CreationDate,2025-11-09T23:24:02-08:00
; #@! TF.GenerationSoftware,Kicad,Pcbnew,9.0.6
; #@! TF.FileFunction,Plated,1,2,PTH
FMAT,2
METRIC
; #@! TA.AperFunction,Plated,PTH,ViaDrill
T1C0.300
%
G90
G05
T1
X46.228Y-124.968
X48.26Y-127.0
X51.308Y-120.904
X54.864Y-125.984
X54.864Y-128.016
X58.928Y-121.412
X60.96Y-125.984
X61.976Y-121.92
X61.976Y-127.0
X62.992Y-124.46
X65.024Y-122.936
X66.04Y-97.028
X66.04Y-100.584
X66.04Y-103.632
X66.04Y-106.68
X66.04Y-110.236
X66.548Y-119.888
X67.564Y-126.492
X68.072Y-122.428
X71.302Y-118.872
X72.136Y-120.904
X75.184Y-128.016
X75.692Y-122.428
X76.708Y-132.08
X77.724Y-115.824
X78.74Y-127.508
X80.264Y-127.0
X80.772Y-97.028
X80.772Y-100.584
X80.772Y-103.632
X80.772Y-106.68
X80.772Y-109.728
X81.28Y-127.0
X82.296Y-125.984
X82.804Y-119.38
X87.376Y-123.444
X88.9Y-127.0
X92.456Y-120.904
X92.456Y-125.984
X92.456Y-128.524
M30
